{
  "accessors": [
    {
      "bufferView": 2,
      "componentType": 5126,
      "count": 63932,
      "max": [22.990318298339844, 15.067460060119629, 32.41223907470703],
      "min": [-3.9312994480133057, -9.751823425292969, -0.4097725450992584],
      "type": "VEC3"
    },
    {
      "bufferView": 2,
      "byteOffset": 767184,
      "componentType": 5126,
      "count": 63932,
      "max": [0.99953693151474, 0.9999912977218628, 0.9999880194664001],
      "min": [-0.9999987483024597, -0.9999963045120239, -0.999872624874115],
      "type": "VEC3"
    },
    {
      "bufferView": 1,
      "componentType": 5126,
      "count": 63932,
      "max": [0.9995726943016052, 0.9979857206344604],
      "min": [0.00018310546875, 0.00042714609298855066],
      "type": "VEC2"
    },
    {
      "bufferView": 0,
      "componentType": 5125,
      "count": 246966,
      "type": "SCALAR"
    },
    {
      "bufferView": 2,
      "byteOffset": 1534368,
      "componentType": 5126,
      "count": 39549,
      "max": [14.556974411010742, 14.815433502197266, 32.4259033203125],
      "min": [-2.632741928100586, -8.884905815124512, -0.3979746103286743],
      "type": "VEC3"
    },
    {
      "bufferView": 2,
      "byteOffset": 2008956,
      "componentType": 5126,
      "count": 39549,
      "max": [0.9999693036079407, 0.9999986886978149, 0.9999094605445862],
      "min": [-0.9999174475669861, -0.9999802112579346, -0.9999648928642273],
      "type": "VEC3"
    },
    {
      "bufferView": 1,
      "byteOffset": 511456,
      "componentType": 5126,
      "count": 39549,
      "max": [0.9995589852333069, 0.8386839628219604],
      "min": [0.00018310546875, 0.00044890178833156824],
      "type": "VEC2"
    },
    {
      "bufferView": 0,
      "byteOffset": 987864,
      "componentType": 5125,
      "count": 198900,
      "type": "SCALAR"
    }
  ],
  "asset": {
    "extras": {
      "author": "matousekfoto (https://sketchfab.com/matousekfoto)",
      "license": "CC-BY-4.0 (http://creativecommons.org/licenses/by/4.0/)",
      "source": "https://sketchfab.com/3d-models/cherry-tree-232e1f60165342afb09a40230f7a469d",
      "title": "Cherry tree"
    },
    "generator": "Sketchfab-12.67.0",
    "version": "2.0"
  },
  "bufferViews": [
    {
      "buffer": 0,
      "byteLength": 1783464,
      "name": "floatBufferViews",
      "target": 34963
    },
    {
      "buffer": 0,
      "byteLength": 827848,
      "byteOffset": 1783464,
      "byteStride": 8,
      "name": "floatBufferViews",
      "target": 34962
    },
    {
      "buffer": 0,
      "byteLength": 2483544,
      "byteOffset": 2611312,
      "byteStride": 12,
      "name": "floatBufferViews",
      "target": 34962
    }
  ],
  "buffers": [
    {
      "byteLength": 5094856,
      "uri": "scene.bin"
    }
  ],
  "extensionsUsed": ["KHR_materials_unlit"],
  "images": [
    {
      "uri": "textures/Material_u1_v1_baseColor.jpeg"
    },
    {
      "uri": "textures/Material_u2_v1_baseColor.jpeg"
    }
  ],
  "materials": [
    {
      "doubleSided": true,
      "extensions": {
        "KHR_materials_unlit": {}
      },
      "name": "Material_u1_v1",
      "pbrMetallicRoughness": {
        "baseColorTexture": {
          "index": 0
        },
        "metallicFactor": 0.0
      }
    },
    {
      "doubleSided": true,
      "extensions": {
        "KHR_materials_unlit": {}
      },
      "name": "Material_u2_v1",
      "pbrMetallicRoughness": {
        "baseColorTexture": {
          "index": 1
        },
        "metallicFactor": 0.0
      }
    }
  ],
  "meshes": [
    {
      "name": "meshNode_Material_u1_v1_0",
      "primitives": [
        {
          "attributes": {
            "NORMAL": 1,
            "POSITION": 0,
            "TEXCOORD_0": 2
          },
          "indices": 3,
          "material": 0,
          "mode": 4
        }
      ]
    },
    {
      "name": "meshNode_Material_u2_v1_0",
      "primitives": [
        {
          "attributes": {
            "NORMAL": 5,
            "POSITION": 4,
            "TEXCOORD_0": 6
          },
          "indices": 7,
          "material": 1,
          "mode": 4
        }
      ]
    }
  ],
  "nodes": [
    {
      "children": [1],
      "matrix": [
        0.001146422466263175, 0.0, 0.0, 0.0, 0.0, 2.5455692359858673e-19,
        -0.001146422466263175, 0.0, 0.0, 0.001146422466263175,
        2.5455692359858673e-19, 0.0, 0.0, 0.0, 0.0, 1.0
      ],
      "name": "Sketchfab_model"
    },
    {
      "children": [2],
      "matrix": [
        1.0, 0.0, 0.0, 0.0, 0.0, 0.0, 1.0, 0.0, 0.0, -1.0, 0.0, 0.0, 0.0, 0.0,
        0.0, 1.0
      ],
      "name": "cherry-trunk.fbx"
    },
    {
      "children": [3],
      "name": "RootNode"
    },
    {
      "children": [4, 5],
      "matrix": [
        7.549789959870878e-6, 1.1102230246251565e-14, 99.99999999999972, 0.0,
        99.99999999999962, -4.371139006309477e-6, -7.549789954319763e-6, 0.0,
        4.371139006309477e-6, 99.99999999999991, -3.552713678800501e-13, 0.0,
        0.0, 0.0, 0.0, 1.0
      ],
      "name": "meshNode"
    },
    {
      "mesh": 0,
      "name": "meshNode_Material_u1_v1_0"
    },
    {
      "mesh": 1,
      "name": "meshNode_Material_u2_v1_0"
    }
  ],
  "samplers": [
    {
      "magFilter": 9729,
      "minFilter": 9987,
      "wrapS": 10497,
      "wrapT": 10497
    }
  ],
  "scene": 0,
  "scenes": [
    {
      "name": "Sketchfab_Scene",
      "nodes": [0]
    }
  ],
  "textures": [
    {
      "sampler": 0,
      "source": 0
    },
    {
      "sampler": 0,
      "source": 1
    }
  ]
}
