<svg xmlns="http://www.w3.org/2000/svg" xmlns:xlink="http://www.w3.org/1999/xlink" contentStyleType="text/css" height="472px" preserveAspectRatio="none" style="width:746px;height:472px;background:#FFFFFF;" version="1.1" viewBox="0 0 746 472" width="746px" zoomAndPan="magnify"><defs/><g><rect fill="#F1F1F1" height="36.2969" rx="12.5" ry="12.5" style="stroke:#181818;stroke-width:1.5;" width="92.3926" x="10" y="217.0391"/><text fill="#000000" font-family="sans-serif" font-size="14" lengthAdjust="spacing" textLength="72.3926" x="20" y="240.0342">Main Page</text><rect fill="#F1F1F1" height="36.2969" rx="12.5" ry="12.5" style="stroke:#181818;stroke-width:1.5;" width="124.8975" x="152.3926" y="104.4453"/><text fill="#000000" font-family="sans-serif" font-size="14" lengthAdjust="spacing" textLength="104.8975" x="162.3926" y="127.4404">Administraci&#243;n</text><rect fill="#F1F1F1" height="36.2969" rx="12.5" ry="12.5" style="stroke:#181818;stroke-width:1.5;" width="160.4717" x="327.29" y="76.2969"/><text fill="#000000" font-family="sans-serif" font-size="14" lengthAdjust="spacing" textLength="140.4717" x="337.29" y="99.292">Gesti&#243;n de Usuarios</text><rect fill="#F1F1F1" height="36.2969" rx="12.5" ry="12.5" style="stroke:#181818;stroke-width:1.5;" width="196.3262" x="537.7617" y="20"/><text fill="#000000" font-family="sans-serif" font-size="14" lengthAdjust="spacing" textLength="176.3262" x="547.7617" y="42.9951">Ver Usuarios Registrados</text><path d="M487.7617,94.4453 L497.7617,94.4453 C512.7617,94.4453 512.7617,38.1484 527.7617,38.1484 L537.7617,38.1484 " fill="none" style="stroke:#181818;stroke-width:1.0;"/><rect fill="#F1F1F1" height="36.2969" rx="12.5" ry="12.5" style="stroke:#181818;stroke-width:1.5;" width="126.3945" x="537.7617" y="76.2969"/><text fill="#000000" font-family="sans-serif" font-size="14" lengthAdjust="spacing" textLength="106.3945" x="547.7617" y="99.292">Editar Usuarios</text><path d="M487.7617,94.4453 L497.7617,94.4453 C512.7617,94.4453 512.7617,94.4453 527.7617,94.4453 L537.7617,94.4453 " fill="none" style="stroke:#181818;stroke-width:1.0;"/><rect fill="#F1F1F1" height="36.2969" rx="12.5" ry="12.5" style="stroke:#181818;stroke-width:1.5;" width="142.3086" x="537.7617" y="132.5938"/><text fill="#000000" font-family="sans-serif" font-size="14" lengthAdjust="spacing" textLength="122.3086" x="547.7617" y="155.5889">Eliminar Usuarios</text><path d="M487.7617,94.4453 L497.7617,94.4453 C512.7617,94.4453 512.7617,150.7422 527.7617,150.7422 L537.7617,150.7422 " fill="none" style="stroke:#181818;stroke-width:1.0;"/><path d="M277.29,122.5938 L287.29,122.5938 C302.29,122.5938 302.29,94.4453 317.29,94.4453 L327.29,94.4453 " fill="none" style="stroke:#181818;stroke-width:1.0;"/><rect fill="#F1F1F1" height="36.2969" rx="12.5" ry="12.5" style="stroke:#181818;stroke-width:1.5;" width="228.0791" x="327.29" y="188.8906"/><text fill="#000000" font-family="sans-serif" font-size="14" lengthAdjust="spacing" textLength="208.0791" x="337.29" y="211.8857">Datos de Uso de la Aplicaci&#243;n</text><path d="M277.29,122.5938 L287.29,122.5938 C302.29,122.5938 302.29,207.0391 317.29,207.0391 L327.29,207.0391 " fill="none" style="stroke:#181818;stroke-width:1.0;"/><path d="M102.3926,235.1875 L112.3926,235.1875 C127.3926,235.1875 127.3926,122.5938 142.3926,122.5938 L152.3926,122.5938 " fill="none" style="stroke:#181818;stroke-width:1.0;"/><rect fill="#F1F1F1" height="36.2969" rx="12.5" ry="12.5" style="stroke:#181818;stroke-width:1.5;" width="118.4443" x="152.3926" y="273.3359"/><text fill="#000000" font-family="sans-serif" font-size="14" lengthAdjust="spacing" textLength="98.4443" x="162.3926" y="296.3311">Notificaciones</text><rect fill="#F1F1F1" height="36.2969" rx="12.5" ry="12.5" style="stroke:#181818;stroke-width:1.5;" width="253.0371" x="320.8369" y="245.1875"/><text fill="#000000" font-family="sans-serif" font-size="14" lengthAdjust="spacing" textLength="233.0371" x="330.8369" y="268.1826">Novedades y Actividades Nuevas</text><path d="M270.8369,291.4844 L280.8369,291.4844 C295.8369,291.4844 295.8369,263.3359 310.8369,263.3359 L320.8369,263.3359 " fill="none" style="stroke:#181818;stroke-width:1.0;"/><rect fill="#F1F1F1" height="36.2969" rx="12.5" ry="12.5" style="stroke:#181818;stroke-width:1.5;" width="241.9971" x="320.8369" y="301.4844"/><text fill="#000000" font-family="sans-serif" font-size="14" lengthAdjust="spacing" textLength="221.9971" x="330.8369" y="324.4795">Configuraci&#243;n de Notificaciones</text><path d="M270.8369,291.4844 L280.8369,291.4844 C295.8369,291.4844 295.8369,319.6328 310.8369,319.6328 L320.8369,319.6328 " fill="none" style="stroke:#181818;stroke-width:1.0;"/><path d="M102.3926,235.1875 L112.3926,235.1875 C127.3926,235.1875 127.3926,291.4844 142.3926,291.4844 L152.3926,291.4844 " fill="none" style="stroke:#181818;stroke-width:1.0;"/><rect fill="#F1F1F1" height="36.2969" rx="12.5" ry="12.5" style="stroke:#181818;stroke-width:1.5;" width="186.9883" x="152.3926" y="385.9297"/><text fill="#000000" font-family="sans-serif" font-size="14" lengthAdjust="spacing" textLength="166.9883" x="162.3926" y="408.9248">Informaci&#243;n del Usuario</text><rect fill="#F1F1F1" height="36.2969" rx="12.5" ry="12.5" style="stroke:#181818;stroke-width:1.5;" width="179.0723" x="389.3809" y="357.7813"/><text fill="#000000" font-family="sans-serif" font-size="14" lengthAdjust="spacing" textLength="159.0723" x="399.3809" y="380.7764">Configuraci&#243;n de Perfil</text><path d="M339.3809,404.0781 L349.3809,404.0781 C364.3809,404.0781 364.3809,375.9297 379.3809,375.9297 L389.3809,375.9297 " fill="none" style="stroke:#181818;stroke-width:1.0;"/><rect fill="#F1F1F1" height="36.2969" rx="12.5" ry="12.5" style="stroke:#181818;stroke-width:1.5;" width="185.3682" x="389.3809" y="414.0781"/><text fill="#000000" font-family="sans-serif" font-size="14" lengthAdjust="spacing" textLength="165.3682" x="399.3809" y="437.0732">Historial de Actividades</text><path d="M339.3809,404.0781 L349.3809,404.0781 C364.3809,404.0781 364.3809,432.2266 379.3809,432.2266 L389.3809,432.2266 " fill="none" style="stroke:#181818;stroke-width:1.0;"/><path d="M102.3926,235.1875 L112.3926,235.1875 C127.3926,235.1875 127.3926,404.0781 142.3926,404.0781 L152.3926,404.0781 " fill="none" style="stroke:#181818;stroke-width:1.0;"/><!--SRC=[TLBBJW914BpFL_HHDz4W46Bs10e-a4M2mBtTwTrqCjj3PcSsuRly17_CMH0q64-JhkgghkxCiFReVCMYAzog139aWGMMf984HZeIN7k7ENz-I8GIUAJQjmLeWdKTqB6jMoA13RaJ0aigzq9zP2UQuwGpoSHmd706mnXzTDZxs_On2AEjuVoK0kRMSx47hD11DBSDQTHKmmv6kUU63zKyK8E7bdih1PVXUvlM-OyFF4jXNNNgCCTa_nWio1LizkHJtDSwHjFYlnAe8Oa-7bWj38fVPpDeoDLnAjnSTplT_lNWuWqzJ8E1pW0wlVIcd_Pk8HkleAKlrSNZOWQr3IudqErb-JtugBzKKsmGba4yLvJ2wvPaEduv0Z2HXfsLYiIhwIRxQHZqh-xOmnkvc0GscHfJWS7ugCYjPYbJMAyUhcxL3AKCyKEaGABkRVHrknGa6FC5]--></g></svg>